#N canvas -8 -8 1365 685 12;
#X obj 18 38 inlet;
#X text 17 17 toggle on/off;
#X obj 115 227 numloop;
#X obj 95 227 bng 15 250 50 0 empty empty empty 17 7 0 10 -262144 -1
-1;
#X obj 18 130 tgl 15 0 empty empty empty 17 7 0 10 -262144 -1 -1 0
1;
#X obj 128 38 inlet;
#X text 127 17 bpm;
#X obj 198 38 inlet;
#X text 197 17 # of beats;
#X obj 298 38 inlet;
#X text 297 17 # of steps per beat;
#X floatatom 298 140 5 0 0 0 - - -;
#X floatatom 198 140 5 0 0 0 - - -;
#X floatatom 128 140 5 0 0 0 - - -;
#X msg 34 64 set \$1;
#X floatatom 504 100 5 0 0 0 - - -;
#X floatatom 504 123 2 1 4 0 - - -;
#X floatatom 504 146 2 1 4 0 - - -;
#X text 544 100 bpm;
#X text 523 123 # beats;
#X text 523 146 # steps/beat;
#X obj 141 202 *;
#X obj 167 202 t b f;
#X obj 128 172 *;
#X obj 154 172 t b f;
#X floatatom 115 253 5 0 0 0 - - -;
#X obj 128 114 posgate;
#X obj 633 109 tgl 15 0 empty empty empty 17 7 0 10 -262144 -1 -1 0
1;
#X text 631 89 1;
#X text 847 89 3;
#X text 955 89 4;
#X text 739 89 2;
#X obj 633 129 tgl 15 0 empty empty empty 17 7 0 10 -262144 -1 -1 0
1;
#X text 618 106 A;
#X text 618 126 B;
#X obj 633 149 tgl 15 0 empty empty empty 17 7 0 10 -262144 -1 -1 0
1;
#X text 618 146 C;
#X obj 633 83 bng 8 250 50 0 empty empty empty 17 7 0 10 -262144 -1
-1;
#X obj 741 83 bng 8 250 50 0 empty empty empty 17 7 0 10 -262144 -1
-1;
#X obj 849 83 bng 8 250 50 0 empty empty empty 17 7 0 10 -262144 -1
-1;
#X obj 957 83 bng 8 250 50 0 empty empty empty 17 7 0 10 -262144 -1
-1;
#X obj 141 278 t b f;
#X obj 115 278 mod;
#X floatatom 115 305 5 0 0 0 - - -;
#X obj 245 253 sel 0;
#X obj 245 278 counter;
#X floatatom 245 305 5 0 0 0 - - -;
#X text 280 305 current beat;
#X text 150 305 current step;
#X text 59 224 Reset;
#X obj 1038 56 tgl 15 0 empty empty empty 17 7 0 10 -262144 -1 -1 0
1;
#X obj 245 330 * 4;
#X text 142 358 Translate beat + step into index in step sequencer
;
#X obj 115 358 +;
#X obj 115 331 t f f;
#X floatatom 115 386 5 0 0 0 - - -;
#X text 150 386 Index in step sequencer;
#X obj 604 208 route 0 1 2 3 4 5 6 7 8 9 10 11 12 13 14 15, f 56;
#X obj 18 608 outlet;
#X text 61 608 channel A;
#X obj 148 608 outlet;
#X obj 278 608 outlet;
#X text 191 608 channel B;
#X text 321 608 channel C;
#N canvas 359 451 450 300 selectdup 0;
#X obj 18 33 inlet;
#X obj 68 33 inlet;
#X text 66 14 A toggle;
#X obj 138 33 inlet;
#X obj 208 33 inlet;
#X text 136 14 B toggle;
#X text 206 14 C toggle;
#X obj 18 213 outlet;
#X text 16 14 data;
#X text 60 213 A thru;
#X obj 118 213 outlet;
#X obj 218 213 outlet;
#X text 160 213 B thru;
#X text 260 213 C thru;
#X obj 68 59 tgl 15 0 empty empty empty 17 7 0 10 -262144 -1 -1 0 1
;
#X obj 138 59 tgl 15 0 empty empty empty 17 7 0 10 -262144 -1 -1 0
1;
#X obj 208 59 tgl 15 0 empty empty empty 17 7 0 10 -262144 -1 -1 0
1;
#X obj 18 88 spigot;
#X obj 48 118 spigot;
#X obj 78 148 spigot;
#X connect 0 0 17 0;
#X connect 0 0 18 0;
#X connect 0 0 19 0;
#X connect 1 0 14 0;
#X connect 3 0 15 0;
#X connect 4 0 16 0;
#X connect 14 0 17 1;
#X connect 15 0 18 1;
#X connect 16 0 19 1;
#X connect 17 0 7 0;
#X connect 18 0 10 0;
#X connect 19 0 11 0;
#X restore 604 245 pd selectdup;
#X obj 115 413 s \$0-index;
#X obj 604 182 r \$0-index;
#X text 990 53 on/off;
#X obj 660 109 tgl 15 0 empty empty empty 17 7 0 10 -262144 -1 -1 0
1;
#X obj 660 129 tgl 15 0 empty empty empty 17 7 0 10 -262144 -1 -1 0
1;
#X obj 660 149 tgl 15 0 empty empty empty 17 7 0 10 -262144 -1 -1 0
1;
#N canvas 359 451 450 300 selectdup 0;
#X obj 18 33 inlet;
#X obj 68 33 inlet;
#X text 66 14 A toggle;
#X obj 138 33 inlet;
#X obj 208 33 inlet;
#X text 136 14 B toggle;
#X text 206 14 C toggle;
#X obj 18 213 outlet;
#X text 16 14 data;
#X text 60 213 A thru;
#X obj 118 213 outlet;
#X obj 218 213 outlet;
#X text 160 213 B thru;
#X text 260 213 C thru;
#X obj 68 59 tgl 15 0 empty empty empty 17 7 0 10 -262144 -1 -1 0 1
;
#X obj 138 59 tgl 15 0 empty empty empty 17 7 0 10 -262144 -1 -1 0
1;
#X obj 208 59 tgl 15 0 empty empty empty 17 7 0 10 -262144 -1 -1 0
1;
#X obj 18 88 spigot;
#X obj 48 118 spigot;
#X obj 78 148 spigot;
#X connect 0 0 17 0;
#X connect 0 0 18 0;
#X connect 0 0 19 0;
#X connect 1 0 14 0;
#X connect 3 0 15 0;
#X connect 4 0 16 0;
#X connect 14 0 17 1;
#X connect 15 0 18 1;
#X connect 16 0 19 1;
#X connect 17 0 7 0;
#X connect 18 0 10 0;
#X connect 19 0 11 0;
#X restore 624 275 pd selectdup;
#X obj 687 109 tgl 15 0 empty empty empty 17 7 0 10 -262144 -1 -1 0
1;
#X obj 687 129 tgl 15 0 empty empty empty 17 7 0 10 -262144 -1 -1 0
1;
#X obj 687 149 tgl 15 0 empty empty empty 17 7 0 10 -262144 -1 -1 0
1;
#N canvas 359 451 450 300 selectdup 0;
#X obj 18 33 inlet;
#X obj 68 33 inlet;
#X text 66 14 A toggle;
#X obj 138 33 inlet;
#X obj 208 33 inlet;
#X text 136 14 B toggle;
#X text 206 14 C toggle;
#X obj 18 213 outlet;
#X text 16 14 data;
#X text 60 213 A thru;
#X obj 118 213 outlet;
#X obj 218 213 outlet;
#X text 160 213 B thru;
#X text 260 213 C thru;
#X obj 68 59 tgl 15 0 empty empty empty 17 7 0 10 -262144 -1 -1 0 1
;
#X obj 138 59 tgl 15 0 empty empty empty 17 7 0 10 -262144 -1 -1 0
1;
#X obj 208 59 tgl 15 0 empty empty empty 17 7 0 10 -262144 -1 -1 0
1;
#X obj 18 88 spigot;
#X obj 48 118 spigot;
#X obj 78 148 spigot;
#X connect 0 0 17 0;
#X connect 0 0 18 0;
#X connect 0 0 19 0;
#X connect 1 0 14 0;
#X connect 3 0 15 0;
#X connect 4 0 16 0;
#X connect 14 0 17 1;
#X connect 15 0 18 1;
#X connect 16 0 19 1;
#X connect 17 0 7 0;
#X connect 18 0 10 0;
#X connect 19 0 11 0;
#X restore 644 305 pd selectdup;
#X obj 714 109 tgl 15 0 empty empty empty 17 7 0 10 -262144 -1 -1 0
1;
#X obj 714 129 tgl 15 0 empty empty empty 17 7 0 10 -262144 -1 -1 0
1;
#X obj 714 149 tgl 15 0 empty empty empty 17 7 0 10 -262144 -1 -1 0
1;
#N canvas 359 451 450 300 selectdup 0;
#X obj 18 33 inlet;
#X obj 68 33 inlet;
#X text 66 14 A toggle;
#X obj 138 33 inlet;
#X obj 208 33 inlet;
#X text 136 14 B toggle;
#X text 206 14 C toggle;
#X obj 18 213 outlet;
#X text 16 14 data;
#X text 60 213 A thru;
#X obj 118 213 outlet;
#X obj 218 213 outlet;
#X text 160 213 B thru;
#X text 260 213 C thru;
#X obj 68 59 tgl 15 0 empty empty empty 17 7 0 10 -262144 -1 -1 0 1
;
#X obj 138 59 tgl 15 0 empty empty empty 17 7 0 10 -262144 -1 -1 0
1;
#X obj 208 59 tgl 15 0 empty empty empty 17 7 0 10 -262144 -1 -1 0
1;
#X obj 18 88 spigot;
#X obj 48 118 spigot;
#X obj 78 148 spigot;
#X connect 0 0 17 0;
#X connect 0 0 18 0;
#X connect 0 0 19 0;
#X connect 1 0 14 0;
#X connect 3 0 15 0;
#X connect 4 0 16 0;
#X connect 14 0 17 1;
#X connect 15 0 18 1;
#X connect 16 0 19 1;
#X connect 17 0 7 0;
#X connect 18 0 10 0;
#X connect 19 0 11 0;
#X restore 664 335 pd selectdup;
#X obj 741 109 tgl 15 0 empty empty empty 17 7 0 10 -262144 -1 -1 0
1;
#X obj 741 129 tgl 15 0 empty empty empty 17 7 0 10 -262144 -1 -1 0
1;
#X obj 741 149 tgl 15 0 empty empty empty 17 7 0 10 -262144 -1 -1 0
1;
#N canvas 359 451 450 300 selectdup 0;
#X obj 18 33 inlet;
#X obj 68 33 inlet;
#X text 66 14 A toggle;
#X obj 138 33 inlet;
#X obj 208 33 inlet;
#X text 136 14 B toggle;
#X text 206 14 C toggle;
#X obj 18 213 outlet;
#X text 16 14 data;
#X text 60 213 A thru;
#X obj 118 213 outlet;
#X obj 218 213 outlet;
#X text 160 213 B thru;
#X text 260 213 C thru;
#X obj 68 59 tgl 15 0 empty empty empty 17 7 0 10 -262144 -1 -1 0 1
;
#X obj 138 59 tgl 15 0 empty empty empty 17 7 0 10 -262144 -1 -1 0
1;
#X obj 208 59 tgl 15 0 empty empty empty 17 7 0 10 -262144 -1 -1 0
1;
#X obj 18 88 spigot;
#X obj 48 118 spigot;
#X obj 78 148 spigot;
#X connect 0 0 17 0;
#X connect 0 0 18 0;
#X connect 0 0 19 0;
#X connect 1 0 14 0;
#X connect 3 0 15 0;
#X connect 4 0 16 0;
#X connect 14 0 17 1;
#X connect 15 0 18 1;
#X connect 16 0 19 1;
#X connect 17 0 7 0;
#X connect 18 0 10 0;
#X connect 19 0 11 0;
#X restore 684 365 pd selectdup;
#X obj 768 109 tgl 15 0 empty empty empty 17 7 0 10 -262144 -1 -1 0
1;
#X obj 768 129 tgl 15 0 empty empty empty 17 7 0 10 -262144 -1 -1 0
1;
#X obj 768 149 tgl 15 0 empty empty empty 17 7 0 10 -262144 -1 -1 0
1;
#N canvas 359 451 450 300 selectdup 0;
#X obj 18 33 inlet;
#X obj 68 33 inlet;
#X text 66 14 A toggle;
#X obj 138 33 inlet;
#X obj 208 33 inlet;
#X text 136 14 B toggle;
#X text 206 14 C toggle;
#X obj 18 213 outlet;
#X text 16 14 data;
#X text 60 213 A thru;
#X obj 118 213 outlet;
#X obj 218 213 outlet;
#X text 160 213 B thru;
#X text 260 213 C thru;
#X obj 68 59 tgl 15 0 empty empty empty 17 7 0 10 -262144 -1 -1 0 1
;
#X obj 138 59 tgl 15 0 empty empty empty 17 7 0 10 -262144 -1 -1 0
1;
#X obj 208 59 tgl 15 0 empty empty empty 17 7 0 10 -262144 -1 -1 0
1;
#X obj 18 88 spigot;
#X obj 48 118 spigot;
#X obj 78 148 spigot;
#X connect 0 0 17 0;
#X connect 0 0 18 0;
#X connect 0 0 19 0;
#X connect 1 0 14 0;
#X connect 3 0 15 0;
#X connect 4 0 16 0;
#X connect 14 0 17 1;
#X connect 15 0 18 1;
#X connect 16 0 19 1;
#X connect 17 0 7 0;
#X connect 18 0 10 0;
#X connect 19 0 11 0;
#X restore 704 395 pd selectdup;
#X obj 795 109 tgl 15 0 empty empty empty 17 7 0 10 -262144 -1 -1 0
1;
#X obj 795 129 tgl 15 0 empty empty empty 17 7 0 10 -262144 -1 -1 0
1;
#X obj 795 149 tgl 15 0 empty empty empty 17 7 0 10 -262144 -1 -1 0
1;
#N canvas 359 451 450 300 selectdup 0;
#X obj 18 33 inlet;
#X obj 68 33 inlet;
#X text 66 14 A toggle;
#X obj 138 33 inlet;
#X obj 208 33 inlet;
#X text 136 14 B toggle;
#X text 206 14 C toggle;
#X obj 18 213 outlet;
#X text 16 14 data;
#X text 60 213 A thru;
#X obj 118 213 outlet;
#X obj 218 213 outlet;
#X text 160 213 B thru;
#X text 260 213 C thru;
#X obj 68 59 tgl 15 0 empty empty empty 17 7 0 10 -262144 -1 -1 0 1
;
#X obj 138 59 tgl 15 0 empty empty empty 17 7 0 10 -262144 -1 -1 0
1;
#X obj 208 59 tgl 15 0 empty empty empty 17 7 0 10 -262144 -1 -1 0
1;
#X obj 18 88 spigot;
#X obj 48 118 spigot;
#X obj 78 148 spigot;
#X connect 0 0 17 0;
#X connect 0 0 18 0;
#X connect 0 0 19 0;
#X connect 1 0 14 0;
#X connect 3 0 15 0;
#X connect 4 0 16 0;
#X connect 14 0 17 1;
#X connect 15 0 18 1;
#X connect 16 0 19 1;
#X connect 17 0 7 0;
#X connect 18 0 10 0;
#X connect 19 0 11 0;
#X restore 724 425 pd selectdup;
#X obj 822 109 tgl 15 0 empty empty empty 17 7 0 10 -262144 -1 -1 0
1;
#X obj 822 129 tgl 15 0 empty empty empty 17 7 0 10 -262144 -1 -1 0
1;
#X obj 822 149 tgl 15 0 empty empty empty 17 7 0 10 -262144 -1 -1 0
1;
#N canvas 359 451 450 300 selectdup 0;
#X obj 18 33 inlet;
#X obj 68 33 inlet;
#X text 66 14 A toggle;
#X obj 138 33 inlet;
#X obj 208 33 inlet;
#X text 136 14 B toggle;
#X text 206 14 C toggle;
#X obj 18 213 outlet;
#X text 16 14 data;
#X text 60 213 A thru;
#X obj 118 213 outlet;
#X obj 218 213 outlet;
#X text 160 213 B thru;
#X text 260 213 C thru;
#X obj 68 59 tgl 15 0 empty empty empty 17 7 0 10 -262144 -1 -1 0 1
;
#X obj 138 59 tgl 15 0 empty empty empty 17 7 0 10 -262144 -1 -1 0
1;
#X obj 208 59 tgl 15 0 empty empty empty 17 7 0 10 -262144 -1 -1 0
1;
#X obj 18 88 spigot;
#X obj 48 118 spigot;
#X obj 78 148 spigot;
#X connect 0 0 17 0;
#X connect 0 0 18 0;
#X connect 0 0 19 0;
#X connect 1 0 14 0;
#X connect 3 0 15 0;
#X connect 4 0 16 0;
#X connect 14 0 17 1;
#X connect 15 0 18 1;
#X connect 16 0 19 1;
#X connect 17 0 7 0;
#X connect 18 0 10 0;
#X connect 19 0 11 0;
#X restore 744 455 pd selectdup;
#X obj 849 109 tgl 15 0 empty empty empty 17 7 0 10 -262144 -1 -1 0
1;
#X obj 849 129 tgl 15 0 empty empty empty 17 7 0 10 -262144 -1 -1 0
1;
#X obj 849 149 tgl 15 0 empty empty empty 17 7 0 10 -262144 -1 -1 0
1;
#N canvas 359 451 450 300 selectdup 0;
#X obj 18 33 inlet;
#X obj 68 33 inlet;
#X text 66 14 A toggle;
#X obj 138 33 inlet;
#X obj 208 33 inlet;
#X text 136 14 B toggle;
#X text 206 14 C toggle;
#X obj 18 213 outlet;
#X text 16 14 data;
#X text 60 213 A thru;
#X obj 118 213 outlet;
#X obj 218 213 outlet;
#X text 160 213 B thru;
#X text 260 213 C thru;
#X obj 68 59 tgl 15 0 empty empty empty 17 7 0 10 -262144 -1 -1 0 1
;
#X obj 138 59 tgl 15 0 empty empty empty 17 7 0 10 -262144 -1 -1 0
1;
#X obj 208 59 tgl 15 0 empty empty empty 17 7 0 10 -262144 -1 -1 0
1;
#X obj 18 88 spigot;
#X obj 48 118 spigot;
#X obj 78 148 spigot;
#X connect 0 0 17 0;
#X connect 0 0 18 0;
#X connect 0 0 19 0;
#X connect 1 0 14 0;
#X connect 3 0 15 0;
#X connect 4 0 16 0;
#X connect 14 0 17 1;
#X connect 15 0 18 1;
#X connect 16 0 19 1;
#X connect 17 0 7 0;
#X connect 18 0 10 0;
#X connect 19 0 11 0;
#X restore 764 245 pd selectdup;
#X obj 876 109 tgl 15 0 empty empty empty 17 7 0 10 -262144 -1 -1 0
1;
#X obj 876 129 tgl 15 0 empty empty empty 17 7 0 10 -262144 -1 -1 0
1;
#X obj 876 149 tgl 15 0 empty empty empty 17 7 0 10 -262144 -1 -1 0
1;
#N canvas 359 451 450 300 selectdup 0;
#X obj 18 33 inlet;
#X obj 68 33 inlet;
#X text 66 14 A toggle;
#X obj 138 33 inlet;
#X obj 208 33 inlet;
#X text 136 14 B toggle;
#X text 206 14 C toggle;
#X obj 18 213 outlet;
#X text 16 14 data;
#X text 60 213 A thru;
#X obj 118 213 outlet;
#X obj 218 213 outlet;
#X text 160 213 B thru;
#X text 260 213 C thru;
#X obj 68 59 tgl 15 0 empty empty empty 17 7 0 10 -262144 -1 -1 0 1
;
#X obj 138 59 tgl 15 0 empty empty empty 17 7 0 10 -262144 -1 -1 0
1;
#X obj 208 59 tgl 15 0 empty empty empty 17 7 0 10 -262144 -1 -1 0
1;
#X obj 18 88 spigot;
#X obj 48 118 spigot;
#X obj 78 148 spigot;
#X connect 0 0 17 0;
#X connect 0 0 18 0;
#X connect 0 0 19 0;
#X connect 1 0 14 0;
#X connect 3 0 15 0;
#X connect 4 0 16 0;
#X connect 14 0 17 1;
#X connect 15 0 18 1;
#X connect 16 0 19 1;
#X connect 17 0 7 0;
#X connect 18 0 10 0;
#X connect 19 0 11 0;
#X restore 784 275 pd selectdup;
#X obj 903 109 tgl 15 0 empty empty empty 17 7 0 10 -262144 -1 -1 0
1;
#X obj 903 129 tgl 15 0 empty empty empty 17 7 0 10 -262144 -1 -1 0
1;
#X obj 903 149 tgl 15 0 empty empty empty 17 7 0 10 -262144 -1 -1 0
1;
#N canvas 359 451 450 300 selectdup 0;
#X obj 18 33 inlet;
#X obj 68 33 inlet;
#X text 66 14 A toggle;
#X obj 138 33 inlet;
#X obj 208 33 inlet;
#X text 136 14 B toggle;
#X text 206 14 C toggle;
#X obj 18 213 outlet;
#X text 16 14 data;
#X text 60 213 A thru;
#X obj 118 213 outlet;
#X obj 218 213 outlet;
#X text 160 213 B thru;
#X text 260 213 C thru;
#X obj 68 59 tgl 15 0 empty empty empty 17 7 0 10 -262144 -1 -1 0 1
;
#X obj 138 59 tgl 15 0 empty empty empty 17 7 0 10 -262144 -1 -1 0
1;
#X obj 208 59 tgl 15 0 empty empty empty 17 7 0 10 -262144 -1 -1 0
1;
#X obj 18 88 spigot;
#X obj 48 118 spigot;
#X obj 78 148 spigot;
#X connect 0 0 17 0;
#X connect 0 0 18 0;
#X connect 0 0 19 0;
#X connect 1 0 14 0;
#X connect 3 0 15 0;
#X connect 4 0 16 0;
#X connect 14 0 17 1;
#X connect 15 0 18 1;
#X connect 16 0 19 1;
#X connect 17 0 7 0;
#X connect 18 0 10 0;
#X connect 19 0 11 0;
#X restore 804 305 pd selectdup;
#X obj 930 109 tgl 15 0 empty empty empty 17 7 0 10 -262144 -1 -1 0
1;
#X obj 930 129 tgl 15 0 empty empty empty 17 7 0 10 -262144 -1 -1 0
1;
#X obj 930 149 tgl 15 0 empty empty empty 17 7 0 10 -262144 -1 -1 0
1;
#N canvas 359 451 450 300 selectdup 0;
#X obj 18 33 inlet;
#X obj 68 33 inlet;
#X text 66 14 A toggle;
#X obj 138 33 inlet;
#X obj 208 33 inlet;
#X text 136 14 B toggle;
#X text 206 14 C toggle;
#X obj 18 213 outlet;
#X text 16 14 data;
#X text 60 213 A thru;
#X obj 118 213 outlet;
#X obj 218 213 outlet;
#X text 160 213 B thru;
#X text 260 213 C thru;
#X obj 68 59 tgl 15 0 empty empty empty 17 7 0 10 -262144 -1 -1 0 1
;
#X obj 138 59 tgl 15 0 empty empty empty 17 7 0 10 -262144 -1 -1 0
1;
#X obj 208 59 tgl 15 0 empty empty empty 17 7 0 10 -262144 -1 -1 0
1;
#X obj 18 88 spigot;
#X obj 48 118 spigot;
#X obj 78 148 spigot;
#X connect 0 0 17 0;
#X connect 0 0 18 0;
#X connect 0 0 19 0;
#X connect 1 0 14 0;
#X connect 3 0 15 0;
#X connect 4 0 16 0;
#X connect 14 0 17 1;
#X connect 15 0 18 1;
#X connect 16 0 19 1;
#X connect 17 0 7 0;
#X connect 18 0 10 0;
#X connect 19 0 11 0;
#X restore 824 335 pd selectdup;
#X obj 957 109 tgl 15 0 empty empty empty 17 7 0 10 -262144 -1 -1 0
1;
#X obj 957 129 tgl 15 0 empty empty empty 17 7 0 10 -262144 -1 -1 0
1;
#X obj 957 149 tgl 15 0 empty empty empty 17 7 0 10 -262144 -1 -1 0
1;
#N canvas 359 451 450 300 selectdup 0;
#X obj 18 33 inlet;
#X obj 68 33 inlet;
#X text 66 14 A toggle;
#X obj 138 33 inlet;
#X obj 208 33 inlet;
#X text 136 14 B toggle;
#X text 206 14 C toggle;
#X obj 18 213 outlet;
#X text 16 14 data;
#X text 60 213 A thru;
#X obj 118 213 outlet;
#X obj 218 213 outlet;
#X text 160 213 B thru;
#X text 260 213 C thru;
#X obj 68 59 tgl 15 0 empty empty empty 17 7 0 10 -262144 -1 -1 0 1
;
#X obj 138 59 tgl 15 0 empty empty empty 17 7 0 10 -262144 -1 -1 0
1;
#X obj 208 59 tgl 15 0 empty empty empty 17 7 0 10 -262144 -1 -1 0
1;
#X obj 18 88 spigot;
#X obj 48 118 spigot;
#X obj 78 148 spigot;
#X connect 0 0 17 0;
#X connect 0 0 18 0;
#X connect 0 0 19 0;
#X connect 1 0 14 0;
#X connect 3 0 15 0;
#X connect 4 0 16 0;
#X connect 14 0 17 1;
#X connect 15 0 18 1;
#X connect 16 0 19 1;
#X connect 17 0 7 0;
#X connect 18 0 10 0;
#X connect 19 0 11 0;
#X restore 844 365 pd selectdup;
#X obj 984 109 tgl 15 0 empty empty empty 17 7 0 10 -262144 -1 -1 0
1;
#X obj 984 129 tgl 15 0 empty empty empty 17 7 0 10 -262144 -1 -1 0
1;
#X obj 984 149 tgl 15 0 empty empty empty 17 7 0 10 -262144 -1 -1 0
1;
#N canvas 359 451 450 300 selectdup 0;
#X obj 18 33 inlet;
#X obj 68 33 inlet;
#X text 66 14 A toggle;
#X obj 138 33 inlet;
#X obj 208 33 inlet;
#X text 136 14 B toggle;
#X text 206 14 C toggle;
#X obj 18 213 outlet;
#X text 16 14 data;
#X text 60 213 A thru;
#X obj 118 213 outlet;
#X obj 218 213 outlet;
#X text 160 213 B thru;
#X text 260 213 C thru;
#X obj 68 59 tgl 15 0 empty empty empty 17 7 0 10 -262144 -1 -1 0 1
;
#X obj 138 59 tgl 15 0 empty empty empty 17 7 0 10 -262144 -1 -1 0
1;
#X obj 208 59 tgl 15 0 empty empty empty 17 7 0 10 -262144 -1 -1 0
1;
#X obj 18 88 spigot;
#X obj 48 118 spigot;
#X obj 78 148 spigot;
#X connect 0 0 17 0;
#X connect 0 0 18 0;
#X connect 0 0 19 0;
#X connect 1 0 14 0;
#X connect 3 0 15 0;
#X connect 4 0 16 0;
#X connect 14 0 17 1;
#X connect 15 0 18 1;
#X connect 16 0 19 1;
#X connect 17 0 7 0;
#X connect 18 0 10 0;
#X connect 19 0 11 0;
#X restore 864 395 pd selectdup;
#X obj 1011 109 tgl 15 0 empty empty empty 17 7 0 10 -262144 -1 -1
0 1;
#X obj 1011 129 tgl 15 0 empty empty empty 17 7 0 10 -262144 -1 -1
0 1;
#X obj 1011 149 tgl 15 0 empty empty empty 17 7 0 10 -262144 -1 -1
0 1;
#N canvas 359 451 450 300 selectdup 0;
#X obj 18 33 inlet;
#X obj 68 33 inlet;
#X text 66 14 A toggle;
#X obj 138 33 inlet;
#X obj 208 33 inlet;
#X text 136 14 B toggle;
#X text 206 14 C toggle;
#X obj 18 213 outlet;
#X text 16 14 data;
#X text 60 213 A thru;
#X obj 118 213 outlet;
#X obj 218 213 outlet;
#X text 160 213 B thru;
#X text 260 213 C thru;
#X obj 68 59 tgl 15 0 empty empty empty 17 7 0 10 -262144 -1 -1 0 1
;
#X obj 138 59 tgl 15 0 empty empty empty 17 7 0 10 -262144 -1 -1 0
1;
#X obj 208 59 tgl 15 0 empty empty empty 17 7 0 10 -262144 -1 -1 0
1;
#X obj 18 88 spigot;
#X obj 48 118 spigot;
#X obj 78 148 spigot;
#X connect 0 0 17 0;
#X connect 0 0 18 0;
#X connect 0 0 19 0;
#X connect 1 0 14 0;
#X connect 3 0 15 0;
#X connect 4 0 16 0;
#X connect 14 0 17 1;
#X connect 15 0 18 1;
#X connect 16 0 19 1;
#X connect 17 0 7 0;
#X connect 18 0 10 0;
#X connect 19 0 11 0;
#X restore 884 425 pd selectdup;
#X obj 1038 109 tgl 15 0 empty empty empty 17 7 0 10 -262144 -1 -1
0 1;
#X obj 1038 129 tgl 15 0 empty empty empty 17 7 0 10 -262144 -1 -1
0 1;
#X obj 1038 149 tgl 15 0 empty empty empty 17 7 0 10 -262144 -1 -1
0 1;
#N canvas 359 451 450 300 selectdup 0;
#X obj 18 33 inlet;
#X obj 68 33 inlet;
#X text 66 14 A toggle;
#X obj 138 33 inlet;
#X obj 208 33 inlet;
#X text 136 14 B toggle;
#X text 206 14 C toggle;
#X obj 18 213 outlet;
#X text 16 14 data;
#X text 60 213 A thru;
#X obj 118 213 outlet;
#X obj 218 213 outlet;
#X text 160 213 B thru;
#X text 260 213 C thru;
#X obj 68 59 tgl 15 0 empty empty empty 17 7 0 10 -262144 -1 -1 0 1
;
#X obj 138 59 tgl 15 0 empty empty empty 17 7 0 10 -262144 -1 -1 0
1;
#X obj 208 59 tgl 15 0 empty empty empty 17 7 0 10 -262144 -1 -1 0
1;
#X obj 18 88 spigot;
#X obj 48 118 spigot;
#X obj 78 148 spigot;
#X connect 0 0 17 0;
#X connect 0 0 18 0;
#X connect 0 0 19 0;
#X connect 1 0 14 0;
#X connect 3 0 15 0;
#X connect 4 0 16 0;
#X connect 14 0 17 1;
#X connect 15 0 18 1;
#X connect 16 0 19 1;
#X connect 17 0 7 0;
#X connect 18 0 10 0;
#X connect 19 0 11 0;
#X restore 904 455 pd selectdup;
#X obj 141 64 posgate;
#X msg 141 88 set \$1;
#X msg 211 88 set \$1;
#X msg 311 88 set \$1;
#X obj 311 64 ctrlbound 1 4;
#X obj 298 114 ctrlbound 1 4;
#X obj 966 56 bng 15 250 50 0 empty empty empty 17 7 0 10 -262144 -1
-1;
#X text 925 53 Reset;
#X obj 428 38 inlet;
#X text 427 17 Reset;
#X obj 1083 54 loadbang;
#X msg 1083 80 4;
#X msg 1118 80 140;
#X obj 211 64 ctrlbound 1 4;
#X obj 198 114 ctrlbound 1 4;
#X text 656 65 2/2;
#X text 656 89 2/4;
#X text 683 89 3/4;
#X text 710 89 4/4;
#X text 656 77 2/3;
#X text 683 77 3/3;
#X connect 0 0 4 0;
#X connect 0 0 14 0;
#X connect 2 0 25 0;
#X connect 3 0 2 3;
#X connect 3 0 45 2;
#X connect 4 0 2 0;
#X connect 5 0 26 0;
#X connect 5 0 128 0;
#X connect 7 0 141 0;
#X connect 7 0 142 0;
#X connect 9 0 132 0;
#X connect 9 0 133 0;
#X connect 11 0 22 0;
#X connect 11 0 24 0;
#X connect 11 0 42 1;
#X connect 12 0 21 0;
#X connect 12 0 45 1;
#X connect 13 0 23 0;
#X connect 14 0 50 0;
#X connect 15 0 26 0;
#X connect 16 0 142 0;
#X connect 17 0 133 0;
#X connect 21 0 2 2;
#X connect 22 0 21 0;
#X connect 22 1 21 1;
#X connect 23 0 2 1;
#X connect 24 0 23 0;
#X connect 24 1 23 1;
#X connect 25 0 42 0;
#X connect 26 0 13 0;
#X connect 27 0 64 1;
#X connect 32 0 64 2;
#X connect 35 0 64 3;
#X connect 41 0 42 0;
#X connect 41 1 42 1;
#X connect 42 0 43 0;
#X connect 43 0 54 0;
#X connect 44 0 45 0;
#X connect 45 0 46 0;
#X connect 46 0 51 0;
#X connect 50 0 4 0;
#X connect 51 0 53 1;
#X connect 53 0 55 0;
#X connect 54 0 53 0;
#X connect 54 1 44 0;
#X connect 55 0 65 0;
#X connect 57 0 64 0;
#X connect 57 0 37 0;
#X connect 57 1 71 0;
#X connect 57 2 75 0;
#X connect 57 3 79 0;
#X connect 57 4 83 0;
#X connect 57 4 38 0;
#X connect 57 5 87 0;
#X connect 57 6 91 0;
#X connect 57 7 95 0;
#X connect 57 8 99 0;
#X connect 57 8 39 0;
#X connect 57 9 103 0;
#X connect 57 10 107 0;
#X connect 57 11 111 0;
#X connect 57 12 115 0;
#X connect 57 12 40 0;
#X connect 57 13 119 0;
#X connect 57 14 123 0;
#X connect 57 15 127 0;
#X connect 64 0 58 0;
#X connect 64 1 60 0;
#X connect 64 2 61 0;
#X connect 66 0 57 0;
#X connect 68 0 71 1;
#X connect 69 0 71 2;
#X connect 70 0 71 3;
#X connect 71 0 58 0;
#X connect 71 1 60 0;
#X connect 71 2 61 0;
#X connect 72 0 75 1;
#X connect 73 0 75 2;
#X connect 74 0 75 3;
#X connect 75 0 58 0;
#X connect 75 1 60 0;
#X connect 75 2 61 0;
#X connect 76 0 79 1;
#X connect 77 0 79 2;
#X connect 78 0 79 3;
#X connect 79 0 58 0;
#X connect 79 1 60 0;
#X connect 79 2 61 0;
#X connect 80 0 83 1;
#X connect 81 0 83 2;
#X connect 82 0 83 3;
#X connect 83 0 58 0;
#X connect 83 1 60 0;
#X connect 83 2 61 0;
#X connect 84 0 87 1;
#X connect 85 0 87 2;
#X connect 86 0 87 3;
#X connect 87 0 58 0;
#X connect 87 1 60 0;
#X connect 87 2 61 0;
#X connect 88 0 91 1;
#X connect 89 0 91 2;
#X connect 90 0 91 3;
#X connect 91 0 58 0;
#X connect 91 1 60 0;
#X connect 91 2 61 0;
#X connect 92 0 95 1;
#X connect 93 0 95 2;
#X connect 94 0 95 3;
#X connect 95 0 58 0;
#X connect 95 1 60 0;
#X connect 95 2 61 0;
#X connect 96 0 99 1;
#X connect 97 0 99 2;
#X connect 98 0 99 3;
#X connect 99 0 58 0;
#X connect 99 1 60 0;
#X connect 99 2 61 0;
#X connect 100 0 103 1;
#X connect 101 0 103 2;
#X connect 102 0 103 3;
#X connect 103 0 58 0;
#X connect 103 1 60 0;
#X connect 103 2 61 0;
#X connect 104 0 107 1;
#X connect 105 0 107 2;
#X connect 106 0 107 3;
#X connect 107 0 58 0;
#X connect 107 1 60 0;
#X connect 107 2 61 0;
#X connect 108 0 111 1;
#X connect 109 0 111 2;
#X connect 110 0 111 3;
#X connect 111 0 58 0;
#X connect 111 1 60 0;
#X connect 111 2 61 0;
#X connect 112 0 115 1;
#X connect 113 0 115 2;
#X connect 114 0 115 3;
#X connect 115 0 58 0;
#X connect 115 1 60 0;
#X connect 115 2 61 0;
#X connect 116 0 119 1;
#X connect 117 0 119 2;
#X connect 118 0 119 3;
#X connect 119 0 58 0;
#X connect 119 1 60 0;
#X connect 119 2 61 0;
#X connect 120 0 123 1;
#X connect 121 0 123 2;
#X connect 122 0 123 3;
#X connect 123 0 58 0;
#X connect 123 1 60 0;
#X connect 123 2 61 0;
#X connect 124 0 127 1;
#X connect 125 0 127 2;
#X connect 126 0 127 3;
#X connect 127 0 58 0;
#X connect 127 1 60 0;
#X connect 127 2 61 0;
#X connect 128 0 129 0;
#X connect 129 0 15 0;
#X connect 130 0 16 0;
#X connect 131 0 17 0;
#X connect 132 0 131 0;
#X connect 133 0 11 0;
#X connect 134 0 3 0;
#X connect 136 0 134 0;
#X connect 138 0 139 0;
#X connect 138 0 140 0;
#X connect 139 0 16 0;
#X connect 139 0 17 0;
#X connect 140 0 15 0;
#X connect 141 0 130 0;
#X connect 142 0 12 0;
#X coords 0 -1 1 1 570 120 1 500 50;
